<?xml version="1.0" encoding="UTF-8"?>
<svg id="Layer_1" data-name="Layer 1" xmlns="http://www.w3.org/2000/svg" viewBox="0 0 1503.05 260.38">
  <defs>
    <style>
      .cls-1 {
        fill: #472f24;
      }
    </style>
  </defs>
  <path class="cls-1" d="M134.02,22.63v16.71l-1.04,3.48v6.27l-8.35,3.13-17.75-1.39-2.44,1.39h-11.83v3.13l-1.74,1.74-3.83-3.83h-9.4l2.09,1.04-1.74,5.22h-3.48l1.04-1.04-1.39-2.78-2.79,2.44,2.44,4.52-4.87,3.13,1.04,1.04v3.13l-1.04,1.39-1.04-1.39-1.74,1.39,2.09,7.31h-3.13l-4.18-1.39-2.09,4.18,2.78,2.79,2.44.7v2.09l-1.04,1.04-3.13-2.79-3.48,7.31h-2.09v2.09h6.27v3.13l-2.09,2.44v3.83l-1.04-.7-3.13.7-1.04,1.04,2.09,2.09-2.09,2.44v7.31l1.04,1.04,1.04-1.04h2.09l2.09,2.44h2.09v-2.44l3.48-3.13,1.74,1.04-.7,1.04v1.04l-4.53,4.53-2.09,3.83-3.13-1.74h-3.13l2.09.7v4.53l3.13,3.13h1.04v2.09l-4.87,1.74,3.13,3.13-2.78,4.18,4.53,2.44,1.04-1.04h1.04v3.48h1.39l1.04-1.39,2.78-1.04-2.78-1.74v-2.09l2.78-3.13v-2.44l1.04-2.09,2.09-11.49,3.48-3.13,3.13-1.39,2.09,1.39,9.4,1.04h23.67l9.05,2.09,2.78,4.87v23.67l-3.83,3.48-7.66,3.13-4.53-1.39-4.18,2.44-6.61-2.44h-11.49l-3.48,1.39-2.44-2.78-4.53,4.53-3.83-7.66-5.57-2.09-5.57,2.79-1.74-3.48h-1.74v3.13l6.96,4.87-1.74,1.74h-3.13v6.96l-5.57,1.39,1.39,7.31v4.53l2.44,4.87-2.44,2.44v7.31l3.83,3.83-1.74,1.74h-2.09l-1.04,4.87v12.18l3.48,3.48-3.48,3.83v13.92l1.04,5.92-1.04,3.48v2.44l-5.92,7.66-4.87,1.74h-17.75l-12.18-1.04h-6.61l-1.74-3.13-4.18-4.53v-9.4l2.09-4.18v-12.88l1.04-7.31v-25.76l1.04-2.09-1.39-12.18,3.83-13.23v-17.41l1.74-14.62,1.04-19.15,1.04-4.53v-26.11l1.04-9.75-1.04-13.92V19.15l4.87-4.87,26.46-2.09,10.09,1.74,5.57,2.09v7.66h4.18l3.13-1.74,5.22,2.09,1.74-5.22,4.18-4.18,31.33,1.39,4.53,1.04,12.88-1.74,5.92,2.09,3.48,5.22ZM55.35,156.3v2.44l2.09-1.04-2.09-1.39ZM59.53,113.13l-1.04-1.39v-3.48h2.09l3.13,3.13-4.18,1.74ZM64.05,172.31l-4.53-1.04v-3.13l-1.04-1.04,1.04-1.39h3.13l1.39,6.61ZM64.4,68.92h1.74v-3.13l-1.74,3.13ZM67.88,28.54l1.04,2.09v-2.09h-1.04Z"/>
  <path class="cls-1" d="M415.28,9.4v23.32l-4.53,5.57-8.35,2.44h-16.01l-5.92,1.04-2.44-1.04h-11.84l-2.09,1.04h-10.79l-2.09-5.57v-5.22h-5.22v-4.53h2.09v-1.04l-2.79-2.44-2.09,1.74,2.09,10.79-2.78,5.92,1.04,1.39v1.74h-1.04v3.48l1.04,1.04v2.09l2.44,2.44-4.18,6.61v3.83l1.74.7,1.04,2.44-2.78,3.13,2.78,1.39,1.39,5.22-1.39,5.22v2.78l-2.78-2.78v8.35h1.74v3.13l-1.39-1.74-2.09,8.35h4.53l6.61,1.74,5.57-2.78,25.41,3.13,8.7,2.44,2.09,10.44-1.39,6.27,1.74,8.7-4.87,6.27-5.22,1.04-1.04,1.04h-20.19l-3.13,1.04h-8.7l-3.13-2.09v-3.13l-2.44,3.13-3.83,1.39v3.83l4.87,2.44,2.44-3.48,3.83,3.48-1.74,1.74v4.18l2.09,1.04-1.04,2.44-5.22-1.39v-4.18h1.04v-1.39l-7.31,1.74v10.44l2.09,1.04v2.44l-2.09,2.78h1.74l-2.09,9.4,1.39,8.35-2.09,6.96,1.04,1.04,2.79-1.74v3.83l-1.04,2.78,1.04,1.39-1.74,2.44-1.04,3.83,2.44,2.44-2.78,8.35h3.83l1.39-3.13-1.04-4.18,1.04-1.39,2.44,3.48,3.13-2.44,10.44-3.13,18.45,2.09h10.44l12.88,1.04,9.05,3.48,3.13,6.27-1.39,3.48,1.04,2.09v18.1l-3.48,5.92v2.44l-6.27,3.13h-9.4l-5.57-1.04h-30.63l-3.13-1.04h-3.48l-5.22-2.79v-2.78l-3.48-4.53v-3.83l-1.04-5.22v-3.48h-2.79v-8.01l-2.09,10.44v5.22l-1.04,4.53v4.87l-5.57,5.57h-17.06l-2.09,1.04-11.49-1.04h-8.7l-9.05-3.13-6.27-10.09,1.74-12.53-2.09-1.39-5.57,2.44v3.48l1.04,1.04-1.39,7.31,1.39,1.39-3.83,8.7-9.05,2.79-16.71,1.04h-23.67l-11.49-2.44-1.39-3.13-4.18-1.04-2.09-4.87,2.79-5.57-1.74-6.61-2.09-1.04v-1.04l2.09-1.04v-3.83l-2.09,1.04v1.74h-3.13v4.18h1.04v6.61l-1.04,2.09v5.57l-5.92,5.57-9.4,2.09-2.79-1.39h-29.94l-6.61-6.61,1.39-28.54v-13.92l2.09-21.23v-6.61l.7-2.09v-11.49l1.39-12.88v-19.15l1.04-2.09-1.04-1.04v-14.97l1.04-3.48-1.39-8.7,1.39-9.05,1.04-1.39v-2.78l-1.04-2.09,1.04-8.7v-14.97l1.04-2.09-1.04-3.13-1.04-21.23,1.74-6.61-1.74-1.74v-5.57l4.18-4.18h2.09l4.53-2.44h29.59l3.13,3.13,1.74,19.49-3.48,6.61,1.74,5.22-1.04,1.74v3.83l5.57,1.74-2.44,4.18-2.44,2.79,1.39,2.78,4.53,2.09v1.04l-5.57,2.44v3.83l3.48,3.13-1.39,2.09-2.78,1.74,4.18,3.83-2.44,3.13-1.04-1.04v1.74l2.09,2.44-2.78,2.78,2.09,13.23-2.09,5.92,1.74,3.48,1.04-1.04v-4.18h2.44l1.04-2.09h3.13l-1.04,4.18-2.09,2.09v3.48l-3.48,3.13-1.04-2.09-1.04,1.04,1.39,12.18,4.18,1.39-3.48,3.48v9.75l-1.04.7v3.13l1.04,2.09v8.7l2.79,3.83-2.79,2.44v6.27l2.79,2.79-2.79,4.87v5.22l3.48,3.13v4.53l1.04,2.09h-4.53l2.44,2.09v12.53h2.09l-1.04,5.57-2.44,4.87,1.39,1.74h2.09l1.39-3.13,4.87-1.74v-5.92l9.75-2.44h45.6l9.05,3.13,2.79,5.57,1.04,4.52h2.09l2.09,2.09,2.09-6.61v-4.18l1.39-3.48,1.04-29.59v-11.83l2.09-25.41v-19.15l.7-18.45,1.04-1.74-1.39-3.13,1.39-11.84,1.04-3.13v-7.31l1.04-6.61v-9.4l1.04-2.09v-14.97l2.09-17.75-2.09-6.27,1.39-12.88,2.44-4.52,7.31-2.44h36.9l5.57,5.22,1.04,8.7v5.22h1.74l3.83-1.74,1.74,1.74h2.09v-4.18l2.09-3.13,1.74-6.96,4.87-2.44h45.95l8.01,4.18,1.39,2.79ZM195.98,69.27h-2.09v-4.53l2.09,2.44v2.09ZM339.74,77.97v1.04h2.09l.7-1.04h-2.79ZM344.61,102.34h-2.78v2.44l2.78,1.74-1.04,1.04h-1.74l-1.04,1.04,1.04,2.09h2.78v2.09l-4.53,1.74,1.74,1.74v1.04l2.44,2.78-1.74,1.39v4.18h1.04v2.09h-1.04l-1.04,2.79,3.13-1.74,2.44,1.04,1.04-1.04v-12.53l1.04-2.44v-3.13l-2.09-1.04v-5.57l1.04-.7-3.48-1.04ZM341.83,221.74l.7,1.04v-2.09l-.7,1.04ZM351.23,64.75l-1.39,1.39-3.48-1.74,1.74-1.39h2.09l1.04,1.74Z"/>
  <path class="cls-1" d="M524.92,19.49l1.74,1.39,2.44,8.01,2.09,4.18v5.57l4.18,4.18,2.44,8.35v4.18l1.39-1.39,1.74,1.39-1.04,1.39,1.04,9.05,2.09,2.44v9.05l7.31,4.87v2.09l-2.44,1.04,5.57,18.1,1.04.7v7.66l4.53,8.7v3.13l2.09,5.22,3.83,3.48-1.74,3.13,1.39,8.01,5.57,2.78-2.78,2.79v2.09l4.87,4.87-1.74,1.74v4.18l2.78,11.83h5.92v3.13h-2.09l-1.04-1.04v5.22l3.13,3.13v4.18l3.83,11.49,1.74,1.39,1.04,6.27,3.83,4.53v3.13l-1.39,3.83,2.44,4.53,2.09,2.09,4.53,15.32v9.75l-3.13,1.74-7.31,2.44-15.32-1.39-12.53-1.04-2.09-1.04h-8.7l-5.57-3.13-3.83-7.31-1.04-6.61-2.79-5.57-3.83-13.58-1.74-1.74,1.74-1.39-1.04-1.39v-6.27l-1.04-3.13,1.04-3.13-4.18-4.18v-5.92l-5.22-2.79v-5.22l1.39-1.39-3.13-8.7-2.79-2.78-2.09,2.09h-1.04v1.04l4.53,1.39v3.13l-3.48,3.13-1.04-2.09,1.04-2.09-1.04-1.39h-3.13v-4.52l5.22-1.74,1.04-2.09h1.39v-2.09h-4.53l-5.92,6.27v5.57l.7,1.04v2.09l-2.78-1.39,2.09,5.57v2.44l1.74,2.79v2.09h1.04v2.09h-2.09l-.7,2.44-3.48,2.09h-8.7l-2.09,2.09-7.31,1.04v2.09h4.18v2.44l1.39,1.04-2.44,4.87-1.39-4.53-3.83,1.39,1.04,1.04-3.13,1.04-1.04-2.09v-7.31h-4.53l-5.22,5.57-1.04,2.79-3.13,3.13v2.44l-1.04,3.13v4.18l-2.09,6.27v6.61l-3.13,3.13v7.66l-6.27,8.35-8.7,1.04-17.06,1.04-3.48-5.22,1.39-4.53v-9.4l2.09-4.53,1.39-1.39-1.74-5.57,5.57-25.76v-2.09l1.04-2.09,4.18-16.01v-11.83l2.44-4.18v-6.27l2.09-8.7v-4.18l1.04-5.22v-3.48l3.13-12.53.7-7.66,2.44-10.44v-4.18l2.09-8.7v-5.22l4.18-12.88,2.44-4.18h-1.74l2.79-6.27v-1.74l3.13-11.14v-3.48l2.09-2.78,1.04-4.53,3.13-3.13,5.22,5.57v3.13l3.48,6.27,1.04,5.22,2.79,3.13,1.39,5.57v5.22l4.53,4.87,4.53-4.53-3.83-3.83v-15.66l-4.18-12.88v-4.18l-1.04-5.57v-14.62l4.18-2.09h2.09l3.13-1.39h24.71l3.13,3.48,2.79,1.39,1.39,6.27ZM474.79,218.26l-2.79,2.79-2.09-2.09,1.74-1.74,1.04-3.13,2.09,1.04v3.13ZM500.55,150.03l-2.09,2.09h-2.44v-2.09h-6.27l-6.27-5.92h-2.09v3.83l3.13,3.13v2.44l2.09,2.09-1.04,4.18,3.13,5.22,4.18-4.18h3.13l-2.79-4.18h4.18l3.13-2.09v1.04l-2.09,2.09,1.04,1.04,2.09,5.22h1.04l2.09-4.18v-4.18h3.13l1.04,3.48,5.57-1.74-1.74-3.83h-1.74l-2.09-2.44v-4.87l-8.35,3.83ZM487.33,128.45l-2.09,4.53,3.48,2.44v2.09l-3.13,1.04v1.04l2.09,1.04,4.18-2.09v-4.18l-3.13-2.44v-2.09l-1.39-1.39ZM496.03,122.53l-1.04-1.04v-2.44l-7.31,1.39v2.09l-1.39,2.78,1.39,1.39,1.39-3.13h4.87v5.22l2.09-2.09,2.44-1.04,1.04-2.09-1.04-1.04v-2.09l-2.44,2.09ZM489.76,116.27v1.04h2.09v-1.04h-2.09ZM490.81,80.06l1.04,1.04v-3.13l-1.04,2.09ZM490.81,90.51v1.04l2.09,2.09-1.04,1.04v2.44l-1.04,1.04,1.04,2.09-1.04,3.83v5.92l6.96,2.44,1.74-1.74-4.53-2.09v-7.31l-1.04-1.04v-5.57l3.48-1.04-1.39-2.09v-1.04h-5.22ZM491.5,157.34l-.7-.7v-2.09l2.09,2.09-1.39.7ZM491.85,157.69h-1.04l.7-.35.35.35ZM498.46,129.84l-2.44-1.04-2.09,2.09,2.09,2.09-1.04,1.39v2.09l-1.39,3.13,5.92,1.04,1.04,3.48,2.09.7,1.04-2.09v-3.13l1.04-1.04-1.04-3.83-3.13,1.74h-2.09v-3.48l4.18-2.09-1.04-1.04h-3.13ZM501.6,118.35l1.04,1.04h1.04l-1.04-1.04h-1.04ZM501.6,125.66v2.09h2.09l-1.04-3.13-1.04,1.04ZM504.73,154.56l-1.04,1.04v-4.53l1.04-1.04v4.53ZM507.52,141.68h1.39v-3.13l-1.39,3.13Z"/>
  <path class="cls-1" d="M840.63,24.72v4.18l1.39,11.14-3.13,5.92-3.83,2.09-3.13,1.04h-6.27l-10.79,2.09h-6.61l-6.96,1.04-3.48-2.09-1.04,1.04-5.22,2.09-2.09-1.74-7.31,1.74-1.04,2.09,2.09,2.44,1.04,3.13,3.83,3.83,1.04,7.66-2.44,7.66,1.39,7.31-1.04,2.09v6.61l1.04,4.18v18.1l1.39,9.05-1.39,2.44v6.61l-1.04,2.09,2.09,3.13v19.15l1.39,2.44-1.39.7v7.66h2.44v3.13l1.04,2.09-3.13,1.74,2.09,3.83,1.04-1.04h1.04v3.83l-4.53,4.53,1.39,8.35,3.13,7.31-1.04,4.53-2.09,3.13,1.04,4.18,1.04,1.39-2.09,4.18v20.19l-3.48,6.27-3.83,2.09h-39.33l-3.83-3.83-1.74-9.75v-26.8l1.04-3.48-1.04-1.04v-2.09l-1.04-2.79,1.39-3.83-1.39-3.83v-58.48l-1.04-8.7v-11.49l-2.09-5.57,1.04-2.09-1.04-2.09,1.04-4.18-3.48-9.75v-9.4l-1.04-2.09v-10.79l2.09-8.35v-2.09l1.39-2.09-2.09-2.09-1.39,3.13-2.09-2.44h-3.83l-3.48,1.39-3.13-1.39h-5.57l-4.18-2.09h-12.53l-8.35-2.09-6.61-6.61v-22.97l2.44-5.22,6.96-3.48h28.89l26.8-1.04,7.31,1.04h27.85l10.79-1.74,8.7,3.13,26.46-2.09,8.35,2.09,3.48,3.13,1.74,7.31ZM750.83,56.74l1.04,1.04h2.44v-1.04h-3.48Z"/>
  <path class="cls-1" d="M990.66,28.89l2.09,6.27,2.78,2.78,2.09,6.61v5.22l1.39,2.09v8.01l3.48,1.74-1.39,7.31-1.04,2.09-1.04,12.88-2.44,4.18v5.22l1.39,3.13-4.53,4.53v6.27l1.04,1.04-8.35,8.7v4.18h-3.83l-4.87,3.13v5.22l-6.27,3.13,3.48,3.83-2.44,5.92-2.09,2.09v1.04h3.13l1.04,1.04-1.04,2.09v4.53h3.13l2.09,2.09,1.04-2.09,2.44-1.39-1.04-1.04h2.09l2.09,3.48,1.74,1.39-1.74,1.74h-4.18v6.61l3.13,7.31,1.04,1.04,4.87,14.97,1.39,1.74v3.13l4.18,10.09,2.79,2.44-2.79,2.44v5.57h3.48l1.04,1.04-3.48,1.04v2.09h2.44v9.4l3.13,5.92-1.39,7.31,1.39,6.27-1.39,8.01-9.4,3.83h-12.88l-2.09-1.04-1.04,1.04h-22.28l-7.31-7.66v-4.18l-1.04-9.75-1.04-3.13-2.44-18.1v-5.22l-1.04-4.53v-3.83l-2.09-8.7-2.09-12.88-2.09-4.18-1.39-5.57-2.78-1.39v-8.01h-2.09v-3.48l-9.05,2.44-1.74-2.09v-3.13l3.13-1.74v-3.83l-1.04-2.09,2.09-2.09h3.48l2.09,2.09,2.09-2.09v-3.13l-2.78-2.44,1.74-1.74v-1.04h-1.04l-1.04,1.04-6.96,2.79-3.83,7.66-3.48,3.13v2.44h-1.74l-4.87-4.87-2.79,2.44,1.04,1.04-1.74,7.66h1.74l4.53-2.79,2.09,1.74-2.09,4.53-4.87,4.18,4.87,2.44v2.09l-4.53,2.78v3.13l-2.79,5.57,1.74,4.87,1.74,1.74-2.09,10.79,2.44,6.61,2.44,1.39-2.44,1.04v3.13l1.39,1.04v5.57l1.04,3.13-3.48,2.78v3.48l2.78,2.44-3.83,3.83v12.88l-2.09,3.13v1.04l-4.53,5.57h-3.13l-1.74,1.04-20.54,1.74-7.31-1.74h-9.4l-4.53-3.13-1.04-2.44-2.09-2.09v-11.49l-1.04-3.48,1.04-8.35v-10.79l1.04-7.31v-17.06l1.04-4.53v-21.23l1.04-13.58,2.44-8.7v-25.41l3.48-24.37-2.09-16.36,1.39-12.88,1.04-2.79v-3.13l1.04-1.39h-3.13v-8.35l-1.04-7.31v-7.66l-2.09-21.23,2.09-4.53,4.18-2.09h6.61l2.09-1.04h40.03l9.4,3.83,2.79,6.96v7.66h3.13l1.39-3.13,3.13-1.39,2.09,1.04,2.09-2.09,1.39-7.66,5.92-3.13h18.1l17.06,4.87,10.79,5.57,8.7,10.44ZM900.85,88.07v3.13l3.13-1.04v-2.09l-1.04-1.04-2.09,1.04ZM904.33,72.75l-1.39,1.39,3.48,1.04v1.04l1.74-1.74-3.83-1.74ZM902.94,107.21v1.04h3.48l-3.48-1.04ZM909.55,197.72l-2.09,3.48-1.39-1.39,1.39-5.22h2.09v3.13ZM944.71,62.66h-3.48l-2.09-4.52h-4.18l-2.44-1.04,1.39-5.22-1.74-3.48h-1.74l-.7-1.04h-2.09l-2.09-2.09-1.74,1.74,4.87,4.87,1.04,2.09h2.78l-4.18,4.52-3.48-1.74-2.09-3.83h-2.09l1.39,4.18v5.57l-2.09,1.74-1.39,4.53h-1.74l1.04-1.39v-3.83l-1.04-1.04v3.83h-2.09v-1.04l-1.39-1.04v5.57l1.39,1.04,1.04,3.13-2.44,2.09,1.39,1.04h2.09v1.39l-4.53,1.39-2.09,4.52h-3.83v2.44l3.13,1.04,1.74,2.09h3.48l-1.39,4.18-5.57,3.83,1.74,1.74,1.04,3.13,2.78,3.13v2.09l-2.78,3.13v2.79l5.22,3.83-3.48,1.04v5.22h3.48l3.13,5.22-2.09,1.04-1.74,3.83,2.09,2.09,5.92-1.39h4.18l1.39-4.53,1.04-1.04v-9.4l-1.74-3.83,2.09-4.53,3.48-1.74-2.09-1.74v-2.09h4.53l3.13-1.74,1.74-5.57h3.83v-4.53l2.09-6.27-1.04-1.04,2.09-2.44v-4.87l-2.09-4.53,3.13-2.09v-4.18l-2.09-4.53,1.04-1.74-1.04-1.04-2.09,1.04ZM908.51,142.37l-1.04,2.09,1.04,2.09,2.09-2.09v-2.09h-2.09ZM908.51,71.01l1.04,1.04v-2.09l-1.04,1.04ZM916.86,173.7l-6.27-1.74v-3.13h2.78l2.44,2.44h1.04v2.44ZM912.33,99.9h-1.39l1.39-3.13v3.13ZM912.33,60.57l1.04,2.09h1.74l-1.74-3.13-1.04,1.04ZM921.04,104.08l-1.04.7v3.48l-2.09,2.09-2.78-1.39,1.74-6.96h4.18v2.09ZM917.9,113.48l-2.09-1.04h2.09v1.04ZM922.08,92.25l-3.13,1.04-2.79-2.78,1.74-1.39h2.09l2.09,3.13ZM917.9,42.47h1.04v-2.44l-1.04,2.44ZM925.56,23.32l-1.04,1.74-3.48,1.04v3.13h1.04l3.48-3.13,2.09-1.04v-1.74h-2.09ZM926.96,123.58l-1.39,2.78-2.44,2.09v-2.09l-1.04-1.04-1.04-7.31,1.04-2.09h2.44l2.44,7.66ZM921.04,171.26v-4.53h1.04l3.48,2.09-4.53,2.44ZM922.78,148.99l1.74,2.79,2.09,1.39v-2.44l-3.83-1.74ZM924.52,113.48l-1.39-1.04v-2.09h1.39v3.13ZM924.52,37.94l2.09,4.53,2.09-1.04v2.09h1.74l1.74-1.74-3.48-3.83h-4.18ZM934.96,64.4l-3.48-2.78h3.48v1.04l2.09,1.04-2.09.7ZM966.99,134.02l-2.09,2.09v4.18l3.13-3.13v-1.04h-1.04l1.04-2.09h-1.04ZM970.12,137.15v1.04h1.04l1.04-1.04h-2.09Z"/>
  <path class="cls-1" d="M1115.62,19.49l1.74,1.39,2.44,8.01,2.09,4.18v5.57l4.18,4.18,2.44,8.35v4.18l1.39-1.39,1.74,1.39-1.04,1.39,1.04,9.05,2.09,2.44v9.05l7.31,4.87v2.09l-2.44,1.04,5.57,18.1,1.04.7v7.66l4.53,8.7v3.13l2.09,5.22,3.83,3.48-1.74,3.13,1.39,8.01,5.57,2.78-2.79,2.79v2.09l4.87,4.87-1.74,1.74v4.18l2.79,11.83h5.92v3.13h-2.09l-1.04-1.04v5.22l3.13,3.13v4.18l3.83,11.49,1.74,1.39,1.04,6.27,3.83,4.53v3.13l-1.39,3.83,2.44,4.53,2.09,2.09,4.53,15.32v9.75l-3.13,1.74-7.31,2.44-15.32-1.39-12.53-1.04-2.09-1.04h-8.7l-5.57-3.13-3.83-7.31-1.04-6.61-2.79-5.57-3.83-13.58-1.74-1.74,1.74-1.39-1.04-1.39v-6.27l-1.04-3.13,1.04-3.13-4.18-4.18v-5.92l-5.22-2.79v-5.22l1.39-1.39-3.13-8.7-2.78-2.78-2.09,2.09h-1.04v1.04l4.53,1.39v3.13l-3.48,3.13-1.04-2.09,1.04-2.09-1.04-1.39h-3.13v-4.52l5.22-1.74,1.04-2.09h1.39v-2.09h-4.53l-5.92,6.27v5.57l.7,1.04v2.09l-2.79-1.39,2.09,5.57v2.44l1.74,2.79v2.09h1.04v2.09h-2.09l-.7,2.44-3.48,2.09h-8.7l-2.09,2.09-7.31,1.04v2.09h4.18v2.44l1.39,1.04-2.44,4.87-1.39-4.53-3.83,1.39,1.04,1.04-3.13,1.04-1.04-2.09v-7.31h-4.53l-5.22,5.57-1.04,2.79-3.13,3.13v2.44l-1.04,3.13v4.18l-2.09,6.27v6.61l-3.13,3.13v7.66l-6.27,8.35-8.7,1.04-17.06,1.04-3.48-5.22,1.39-4.53v-9.4l2.09-4.53,1.39-1.39-1.74-5.57,5.57-25.76v-2.09l1.04-2.09,4.18-16.01v-11.83l2.44-4.18v-6.27l2.09-8.7v-4.18l1.04-5.22v-3.48l3.13-12.53.7-7.66,2.44-10.44v-4.18l2.09-8.7v-5.22l4.18-12.88,2.44-4.18h-1.74l2.79-6.27v-1.74l3.13-11.14v-3.48l2.09-2.78,1.04-4.53,3.13-3.13,5.22,5.57v3.13l3.48,6.27,1.04,5.22,2.78,3.13,1.39,5.57v5.22l4.53,4.87,4.53-4.53-3.83-3.83v-15.66l-4.18-12.88v-4.18l-1.04-5.57v-14.62l4.18-2.09h2.09l3.13-1.39h24.72l3.13,3.48,2.78,1.39,1.39,6.27ZM1065.49,218.26l-2.79,2.79-2.09-2.09,1.74-1.74,1.04-3.13,2.09,1.04v3.13ZM1091.25,150.03l-2.09,2.09h-2.44v-2.09h-6.27l-6.27-5.92h-2.09v3.83l3.13,3.13v2.44l2.09,2.09-1.04,4.18,3.13,5.22,4.18-4.18h3.13l-2.79-4.18h4.18l3.13-2.09v1.04l-2.09,2.09,1.04,1.04,2.09,5.22h1.04l2.09-4.18v-4.18h3.13l1.04,3.48,5.57-1.74-1.74-3.83h-1.74l-2.09-2.44v-4.87l-8.35,3.83ZM1078.03,128.45l-2.09,4.53,3.48,2.44v2.09l-3.13,1.04v1.04l2.09,1.04,4.18-2.09v-4.18l-3.13-2.44v-2.09l-1.39-1.39ZM1086.73,122.53l-1.04-1.04v-2.44l-7.31,1.39v2.09l-1.39,2.78,1.39,1.39,1.39-3.13h4.87v5.22l2.09-2.09,2.44-1.04,1.04-2.09-1.04-1.04v-2.09l-2.44,2.09ZM1080.46,116.27v1.04h2.09v-1.04h-2.09ZM1081.51,80.06l1.04,1.04v-3.13l-1.04,2.09ZM1081.51,90.51v1.04l2.09,2.09-1.04,1.04v2.44l-1.04,1.04,1.04,2.09-1.04,3.83v5.92l6.96,2.44,1.74-1.74-4.53-2.09v-7.31l-1.04-1.04v-5.57l3.48-1.04-1.39-2.09v-1.04h-5.22ZM1082.2,157.34l-.7-.7v-2.09l2.09,2.09-1.39.7ZM1082.55,157.69h-1.04l.7-.35.35.35ZM1089.17,129.84l-2.44-1.04-2.09,2.09,2.09,2.09-1.04,1.39v2.09l-1.39,3.13,5.92,1.04,1.04,3.48,2.09.7,1.04-2.09v-3.13l1.04-1.04-1.04-3.83-3.13,1.74h-2.09v-3.48l4.18-2.09-1.04-1.04h-3.13ZM1092.3,118.35l1.04,1.04h1.04l-1.04-1.04h-1.04ZM1092.3,125.66v2.09h2.09l-1.04-3.13-1.04,1.04ZM1095.43,154.56l-1.04,1.04v-4.53l1.04-1.04v4.53ZM1098.21,141.68h1.39v-3.13l-1.39,3.13Z"/>
  <path class="cls-1" d="M1501.65,17.06l1.39,3.83-1.39,3.83v3.83l1.04,1.39-1.04,9.75-3.48,3.13-4.87,1.74h-11.83l-4.53,1.04h-12.53l-3.13,1.04-6.27,1.04h-3.48l-2.09,1.39-4.18,1.04v1.04h4.18v2.79l-5.92,1.74-3.13,5.92-1.74-1.74-1.04,1.04v4.87l1.04,2.44h-2.78v-3.48h-1.04v5.57h1.04v8.7l1.74,4.18v2.44l3.13,1.74-1.04,1.04,1.04,1.04-1.04,1.04v2.44l-4.87,1.74v4.53l1.74,6.27-4.18,1.39v3.83h3.83l1.39-4.18,2.09-3.13h6.61l3.13-1.04,2.09,1.04,19.49.7,9.75,2.44,2.79,5.22v14.97l-1.04,4.18v5.57l-4.87,4.87-4.53,1.39h-25.76l-9.75-1.74v3.83l1.04,1.04h-9.4v2.09h3.13v2.78l-4.18,1.39-2.79,4.53h1.74l3.13-2.09,2.09,1.04-1.04,1.04v3.83l-4.18,2.09v2.44l-2.78,2.79,2.78,2.44v-4.18h4.18l2.44-1.04v3.13l2.09,2.09v2.44h-2.09l-1.39-1.39-4.18,2.79-3.13-1.39-1.04,2.09v5.92l3.13,1.74,2.09,1.74,4.53,1.04,1.04,1.04-2.44,1.04-3.83-1.39-3.48,2.44v2.09l1.04,1.39v4.18l6.27,1.04,2.44-1.04,2.79,3.13v2.44h-1.04v-1.04h-1.74l-3.13-1.74-3.13,5.57-5.92-1.39v2.44h2.79l1.74,3.13-1.04,3.48h-2.09v2.09l2.44,2.44-1.39,3.13,2.79,1.39-5.57,4.87,2.78,5.22-1.04,1.04v1.04l-1.74,3.13-2.09,8.01-5.57,3.83h-16.36l-2.79-2.44-4.53,2.44-2.09-1.39h-12.53l-3.13-2.78-1.39-5.22v-18.1l-1.04-2.44,1.39-4.18-1.39-7.66v-4.87l-1.04-1.04,1.04-3.48h1.04v-2.09h-3.13v-7.66l3.13-3.13v-1.74l-4.18-1.39,4.18-4.18v-10.79h-2.09l-2.09,1.04v-3.13l-3.48-2.09v2.09h-4.18l1.04-2.09,4.18-2.09,2.78,2.44,4.18-2.09-2.79-2.79,1.74-7.31h-3.48l-1.04-1.04,1.04-1.04h3.13v-1.04l-2.09-1.04v-3.13l1.39-1.39-2.44-2.79-2.44,1.04,1.39,1.04v3.48l-1.39.7v3.13h-1.04l-1.04-2.09-2.09,2.09,1.04,2.09h-7.31l-4.18-2.78v2.78l2.09,2.09v2.44h-3.13v1.04l4.18,4.18,3.48,2.09-3.83,1.39-2.44,6.96-3.83,1.74v6.96l1.74,3.13-1.74,6.27,1.39,1.04,1.04-1.04h1.04v2.09l-1.04,1.39v5.22h-2.44v-5.22h-1.04l-1.04,5.22-1.39,1.39,1.39,4.18h1.04v1.04l-3.13,1.74v3.13l-5.57,12.18v2.09l-2.78,2.79-3.13,5.57-9.75,9.75-6.27,3.83-6.61,2.09-2.78,1.74-19.49,3.83h-10.44l-5.57-5.57-3.13-5.92v-3.48l-1.74-1.39-3.48,3.83v4.87l-5.22,7.66h-19.49l-4.18-1.04h-9.75l-2.09-1.04h-4.87l-2.44-1.04h-14.97l-2.78-2.44-3.48-1.39-1.39-13.23,1.74-15.32-2.09-12.18,1.74-8.7-1.04-4.18v-26.8l-1.04-5.92,2.09-3.48-1.74-8.7,1.74-11.49v-11.83l1.04-5.22,1.04-14.97v-12.88l1.39-9.4v-16.36l1.04-1.74v-8.7l.7-4.18v-4.53l1.04-3.83v-7.66l1.04-3.13v-9.4l2.09-4.52v-2.79l3.48-1.39h6.27l2.79-1.39,6.61,1.39,9.75-1.74,6.27,1.74,2.09-1.04,3.13,1.04,7.66-1.04,1.04,1.04h10.79l6.27,6.27,2.78,1.74-3.13,3.13,1.39,1.39,7.31-1.74,2.79-8.7,8.01-3.13h16.01l12.18,4.53,15.67,9.05,5.92,7.66v1.04l5.57,5.57v2.09l2.09,2.78,1.39,8.01,2.09,3.83v10.09l4.18,1.74,2.09,4.18,4.18,1.04,2.09,2.09v3.48h2.09v-4.53l3.48-2.09,1.04,1.04v2.09l-1.04,1.04v1.39l-3.13,4.18h3.13l4.18-4.18v-6.61l-2.79-1.39,2.79-3.13v-2.78l2.09-2.09-1.04-3.13-3.13-1.39,3.48-3.13-1.74-8.7,1.39-4.87v-16.01l4.53-12.88v-3.83l8.01-2.78h21.58l3.13,1.04,2.09-1.74,14.62,1.74,4.53,3.13,3.48,3.48,4.87,2.09,1.74-3.48,9.4-4.87,5.22,1.74,3.83-1.04,8.7,1.04,3.48,1.04h8.01l2.44,1.39,4.18-1.39,9.75,1.39,1.74,2.09h1.39l3.13,4.18ZM1271.91,40.73v1.04l1.04,1.04-2.44,2.78,3.48,3.48,2.44,5.22,4.87,1.39v6.27h-2.44v-3.13l-2.44-2.78-8.01,3.13v2.79h5.57l1.39,7.31h-1.39l-1.04-3.48-1.04,2.44-2.44,2.09v2.09l2.44,2.09h-3.48l-1.04-1.04-2.09,1.04-1.04,2.09,2.09,2.44v2.09l1.04,2.09v1.74h-3.13v-2.78l-3.48-1.04-3.13,3.13v1.74l-1.74-1.04-2.09-2.78-2.44,3.83,1.39,1.39v3.13l-1.39,2.09v4.53l-1.04,4.18v16.01l-1.04,2.09,1.39,6.61-1.39,3.13,1.74,5.57-2.79,2.79v4.18l2.09,6.27v15.32l-1.04,8.01v6.61l-2.09,2.09,2.09,5.22,2.09,2.09-2.09,4.53v8.7l5.22,11.14,8.7,3.48,1.39,3.13h2.78l3.13-2.09,4.18-8.01,4.18-1.74,4.18-3.48,1.39-5.92,3.13-3.13v-3.48l2.09-5.22,3.48-12.53v-5.57l1.39-2.79-1.74-1.39,1.39-14.97,1.04-18.1,1.04-10.44v-37.25l-1.04-2.09v-11.84l-2.09-3.48-1.04-3.83-4.53-4.53h-1.04v-1.04l-3.13-2.09-4.53-1.39v-2.78l-3.83-4.53,2.79-5.57-5.92,1.74ZM1254.85,55.35v2.09l2.79-1.04-.7-1.04h-2.09ZM1256.94,208.51h-1.04v-1.04h1.04v1.04ZM1262.16,205.38l-2.44,1.04v-1.04l2.44-1.04v1.04ZM1265.29,214.08v-1.04l2.09,1.04h-2.09ZM1266.34,232.18v1.04l2.09-2.09-2.09,1.04ZM1268.43,64.05v.7h1.04v-.7h-1.04ZM1270.52,27.5l-1.04,2.44,2.44,1.04,2.09-1.04,1.04-2.44h-4.53ZM1287.57,59.87v1.04h-1.04v-2.09l1.04,1.04ZM1355.8,79.02l-1.39,2.78-2.79,1.39,1.04,1.74h4.18v-5.92h-1.04ZM1351.62,126.71v1.04l1.04-1.04h-1.04ZM1358.24,127.75l-3.48,9.75h-3.13v1.04h2.09l6.27-2.09,2.78-5.92-2.78-2.79h-1.74ZM1362.41,110.35l-3.48,2.44-4.18-1.04v2.09l1.04,1.39-2.09,1.04v2.44l3.13,1.74,2.09-1.04,1.04-3.13,2.09-2.44h4.53l-1.39-2.09-2.79-1.39ZM1354.76,139.59l2.09,1.04v4.18l1.04,3.13,2.09-1.04v-2.09l1.04-.7v-2.44l-2.09-2.09h-4.18ZM1361.02,84.94v6.61h-3.48l-1.74,5.57h5.22l1.04-2.44,5.57-3.48v-2.79l-2.44-3.48h-4.18ZM1355.8,102.69v2.78h2.09l3.13-3.13v-1.04l-5.22,1.39ZM1362.07,193.89h-4.18v-1.04h2.09l1.04-1.04h1.04v2.09ZM1362.07,117.31l1.74,1.39,1.39-1.39-1.04-1.04-2.09,1.04ZM1363.11,121.49l1.04,1.04v-1.04h-1.04ZM1364.15,128.8l1.04-1.04-1.04-1.04v2.09ZM1365.2,104.08v2.44h1.39l2.79,1.39,1.39-1.39-1.04-2.44h-4.52ZM1368.68,127.75v2.09h3.13v-1.04l-3.13-1.04ZM1369.72,89.46h1.04l-1.04-1.04v1.04ZM1427.16,138.54v1.04h2.09l1.04-1.04-1.04-1.04-2.09,1.04ZM1429.95,232.18h-1.74l-1.04-2.09,4.53-1.74-1.74,3.83ZM1431.34,192.85h-3.48l1.74-5.22,1.74,1.74v3.48ZM1432.38,218.26l2.44,2.44v5.92h-5.57l-1.04-1.04,1.04-2.09v-3.83l-1.39-3.13,4.53-2.44v4.18ZM1428.21,126.71v1.04h2.09v-3.13l-2.09,2.09ZM1431.34,179.97l-3.13-1.39v-2.09l5.22,1.74-2.09,1.74ZM1430.29,93.64v3.48l2.09-2.44v-1.04h-2.09ZM1430.29,116.27h1.04v-1.04l-1.04,1.04ZM1432.38,123.58h1.39v-1.04l-1.39,1.04ZM1436.56,138.54l-.7,1.04.7,1.04,1.04-1.04v-1.04h-1.04ZM1499.56,220.69v11.49l-1.39,1.04,1.39,5.57-2.44,4.18h-1.04l1.04.7-1.04,3.13-4.87,2.44h-8.7l-1.04-1.04h-14.97l-2.78-1.39-4.87,2.44-14.62-1.39-6.27-2.09,2.09-2.44-3.83-7.66,1.39-12.18v-5.57l3.13-1.74,3.48-3.13h7.31l5.22,1.04h8.7l13.58,1.04h9.75l3.48,1.04h4.87l2.44,4.52ZM1436.56,91.55v1.04l1.04-1.04v-2.09l-1.04,2.09Z"/>
</svg>